<svg width="270" height="96" viewBox="0 0 270 96" fill="none" xmlns="http://www.w3.org/2000/svg">
<path d="M32.3135 50.5421C32.0507 50.5418 31.8377 50.328 31.8377 50.0652C31.8377 50.0435 31.8377 50.022 31.8377 50.0008C31.8377 49.9558 31.8441 49.9107 31.857 49.8676C32.9989 46.0477 36.3582 44.0416 39.0952 41.385C42.6734 37.9114 45.3511 34.1108 44.4114 28.8089C43.0898 21.3562 33.4079 17.3688 27.9085 23.1798C27.6801 23.4213 26.97 24.4943 26.7642 24.5324C26.5648 24.5692 25.8637 24.3793 25.2354 24.2108C25.1952 24.2 25.1517 24.1859 25.1364 24.1472C24.9801 23.7493 26.3154 21.4872 26.5536 21.1124C33.2009 10.6549 49.8168 12.965 53.4271 24.9095C54.7297 29.2181 53.5687 31.897 53.3629 36.026C53.1071 41.1589 56.3665 44.3684 57.9427 48.9435C60.5812 56.6007 59.5213 67.0011 54.8927 73.7186C54.2586 74.6381 53.3557 75.491 52.7728 76.357C52.6586 76.5264 52.7943 76.6542 52.9976 76.6742C55.189 76.8897 58.5144 78.8092 58.9191 81.0628C58.9653 81.3201 58.7489 81.5328 58.4875 81.5328H15.8252C15.5449 81.5328 15.3229 81.2902 15.3901 81.018C15.9298 78.8335 18.4989 77.2681 20.7271 76.7942C21.1207 76.7105 21.3149 76.2074 21.0526 75.9022C17.9729 72.3182 16.0304 67.9675 15.3229 63.2528C14.2285 55.9619 15.1373 49.8356 19.6577 43.9544C21.2755 41.8501 25.1773 37.9531 25.1773 35.1992V33.6506C25.1773 33.3665 25.4295 33.1403 25.6955 33.24C27.4058 33.8813 27.5326 36.5901 27.3019 38.1565C26.8189 41.4492 24.4873 43.8236 22.8671 46.5691C21.4194 49.022 20.4535 51.5831 20.2953 54.4654C20.0931 58.1436 20.0324 63.5537 20.3013 67.1974C20.6189 71.4886 24.0268 74.7244 28.3098 74.652C28.5567 74.6479 28.7691 74.8209 28.7722 75.0678C28.7874 76.2711 28.5634 78.9146 28.9208 79.2762C29.1278 79.4856 29.405 79.3952 29.6227 79.2572L35.3583 74.7643C35.4448 74.6965 35.5517 74.6608 35.6615 74.6632C40.7382 74.7771 46.333 75.1072 48.5142 69.4813C49.3885 67.2247 49.2351 61.3352 49.0935 58.7479C48.8723 54.72 49.0935 50.541 41.8328 50.541C41.8328 50.541 41.4343 50.5506 41.2059 50.541C41.2059 50.541 35.4087 50.5101 32.4919 50.541C32.4167 50.5419 32.3681 50.5422 32.3135 50.5421Z" fill="url(#paint0_linear_110_871)"/>
<path d="M24.5516 26.2463C28.4581 25.7705 28.5259 32.2643 24.134 31.1235C22.7886 30.7738 19.948 29.8542 18.7513 29.2499C17.9507 28.8455 17.9162 28.19 18.7513 27.8213C19.7481 27.3811 23.4631 26.3795 24.5516 26.2463Z" fill="black"/>
<circle cx="27.5877" cy="62.5248" r="1.78435" fill="black"/>
<circle cx="34.5186" cy="62.5251" r="1.78435" fill="black"/>
<circle cx="41.4496" cy="62.5251" r="1.78435" fill="black"/>
<path d="M196.946 48.788C197.522 48.788 198.098 48.7741 198.673 48.7914C199.36 48.812 199.733 49.1761 199.768 49.8638C199.792 50.3495 199.786 50.8372 199.776 51.3242C199.769 51.6757 199.902 51.8318 200.272 51.8697C201.613 52.0053 202.952 52.1674 204.26 52.5202C206.399 53.0976 208.383 53.9939 210.135 55.3647C212.703 57.3726 214.166 60.0231 214.65 63.221C215.036 65.7758 214.744 68.2535 213.645 70.6076C212.139 73.8321 209.607 75.9251 206.312 77.145C204.411 77.8487 202.433 78.2022 200.416 78.355C199.816 78.4002 199.786 78.4168 199.774 79.0174C199.766 79.4599 199.784 79.9031 199.765 80.345C199.732 81.1044 199.368 81.4938 198.605 81.5131C197.499 81.5403 196.391 81.5376 195.285 81.5144C194.456 81.4971 194.134 81.1436 194.12 80.3204C194.114 79.9224 194.122 79.5237 194.117 79.1257C194.108 78.4513 194.061 78.4134 193.417 78.3583C191.313 78.1769 189.253 77.7743 187.285 76.9935C184.6 75.9291 182.357 74.2853 180.844 71.7863C179.367 69.3452 178.793 66.6854 179.097 63.8343C179.531 59.7606 181.562 56.7135 185.003 54.5607C187.099 53.2491 189.398 52.4969 191.83 52.1215C192.376 52.0372 192.926 51.9827 193.471 51.8923C194.003 51.8039 194.045 51.7621 194.09 51.2172C194.124 50.7993 194.111 50.3774 194.12 49.9575C194.14 49.1043 194.435 48.8066 195.286 48.788C195.574 48.7814 195.861 48.7867 196.15 48.7867C196.415 48.7867 196.681 48.7867 196.947 48.7867V48.79L196.946 48.788ZM194.125 65.2376C194.125 62.738 194.128 60.239 194.123 57.7394C194.122 57.1626 194.038 57.0703 193.538 57.1341C191.949 57.3374 190.4 57.6988 188.97 58.4463C186.413 59.7832 184.945 61.8955 184.802 64.7798C184.652 67.7917 185.931 70.1332 188.516 71.7185C189.699 72.4441 191.004 72.8594 192.367 73.0939C192.758 73.161 193.147 73.2494 193.55 73.2428C194.054 73.2348 194.103 73.1929 194.124 72.6687C194.129 72.5365 194.126 72.4036 194.126 72.2707C194.126 69.9259 194.126 67.5817 194.126 65.2369L194.125 65.2376ZM199.777 65.1971C199.777 65.7279 199.777 66.2582 199.777 66.7891C199.777 68.7565 199.775 70.7245 199.78 72.6919C199.781 73.2786 199.792 73.2826 200.374 73.2454C201.528 73.1723 202.653 72.9438 203.739 72.5498C207.813 71.0701 209.617 67.4661 208.84 63.5592C208.302 60.8536 206.6 59.059 204.068 58.0324C202.977 57.5899 201.837 57.3314 200.67 57.1706C199.843 57.057 199.779 57.0882 199.778 57.9008C199.775 60.3327 199.777 62.7645 199.777 65.1971H199.777Z" fill="black"/>
<path d="M81.9314 67.1929C81.8642 63.0342 81.9549 58.8472 81.9555 54.6878C81.9555 53.1616 82.3967 52.6911 83.9243 52.6885C90.1461 52.6778 96.3672 52.6825 102.589 52.6858C102.853 52.6858 103.121 52.7111 103.38 52.7629C103.99 52.8851 104.426 53.3383 104.449 53.9509C104.483 54.8346 104.486 55.7216 104.45 56.6053C104.42 57.3409 103.905 57.8279 103.175 57.8897C102.933 57.9103 102.688 57.901 102.445 57.901C98.0609 57.901 93.6769 57.901 89.2929 57.9023C87.9362 57.9023 87.7282 58.1116 87.7322 59.4897C87.7348 60.5069 87.7056 61.5242 87.7966 62.5408C87.8597 63.2438 87.8777 63.2883 88.5833 63.2896C91.6165 63.2936 94.6503 63.2783 97.6835 63.2969C99.3778 63.3076 101.036 63.5594 102.595 64.2683C105.59 65.6298 107.269 67.9626 107.645 71.2177C107.921 73.5924 107.437 75.8044 106.01 77.7512C104.476 79.8428 102.355 80.971 99.8243 81.3943C99.1884 81.5006 98.5499 81.5332 97.9067 81.5325C93.1905 81.5292 88.475 81.5305 83.7588 81.5305C83.6259 81.5305 83.493 81.5325 83.3601 81.5285C82.4857 81.5006 82.0605 81.1053 81.9874 80.2408C81.9688 80.0209 81.9741 79.7983 81.9741 79.5777C81.9741 76.2362 81.9367 72.8948 81.9314 69.5533C81.93 68.7566 81.9314 68.4433 81.9314 67.6071V67.1929ZM93.4895 76.2828V76.2794C95.0377 76.2794 96.5858 76.2768 98.1333 76.2808C98.8363 76.2821 99.4928 76.114 100.092 75.7505C101.656 74.8024 102.247 73.3459 101.746 71.126C101.388 69.5427 99.9366 68.5321 98.1652 68.5194C95.0696 68.4968 91.9733 68.5068 88.877 68.5135C88.0498 68.5154 87.8112 68.752 87.8066 69.5905C87.7946 71.5353 87.7973 73.4808 87.8066 75.4256C87.8106 76.1924 87.9116 76.2794 88.7129 76.2821C90.3049 76.2867 91.8975 76.2834 93.4895 76.2834V76.2828Z" fill="black"/>
<path d="M167.451 62.0579C166.737 62.8758 166.083 63.6213 165.432 64.3695C162.877 67.3083 160.324 70.2491 157.769 73.1879C155.853 75.3925 153.937 77.5971 152.018 79.7991C151.699 80.1659 151.375 80.5306 151.03 80.8742C150.589 81.314 150.054 81.5419 149.417 81.5313C148.664 81.5187 147.911 81.5366 147.159 81.5253C146.08 81.5087 145.528 81.0037 145.417 79.9327C145.387 79.6476 145.391 79.3579 145.394 79.0709C145.466 73.0311 145.484 66.9913 145.476 60.9516C145.472 58.739 145.477 56.5264 145.48 54.3138C145.48 54.0926 145.474 53.8686 145.507 53.652C145.598 53.0693 145.991 52.658 146.569 52.6421C147.697 52.6102 148.827 52.6095 149.955 52.6414C150.54 52.6574 150.923 53.076 151 53.6574C151.011 53.7451 151.011 53.8341 151.012 53.9225C151.015 54.0773 151.015 54.2321 151.015 54.3869C151.006 60.2273 151.142 66.0678 151.092 71.9089C151.09 72.1035 151.05 72.3069 151.156 72.4962C151.364 72.5441 151.414 72.356 151.505 72.2504C153.937 69.4385 156.362 66.6212 158.794 63.81C161.733 60.4127 164.68 57.0221 167.617 53.6235C168.203 52.9457 168.9 52.5657 169.819 52.6148C170.415 52.6467 171.015 52.6082 171.612 52.6281C172.445 52.656 173.013 53.1484 173.197 53.9683C173.27 54.2939 173.288 54.6241 173.288 54.957C173.286 63.21 173.286 71.4637 173.285 79.7167C173.285 80.0263 173.288 80.3373 173.205 80.6396C173.062 81.1639 172.71 81.5007 172.169 81.5127C171.018 81.5386 169.866 81.5386 168.716 81.514C168.142 81.5021 167.78 81.1559 167.645 80.6004C167.565 80.2742 167.578 79.9413 167.577 79.6097C167.574 74.0557 167.572 68.5023 167.565 62.9482C167.565 62.6904 167.614 62.4227 167.451 62.0579H167.451Z" fill="black"/>
<path d="M122.405 57.9695C120.634 57.9695 118.864 57.9761 117.093 57.9662C116.363 57.9622 115.633 57.9316 114.905 57.8931C114.21 57.8565 113.715 57.4778 113.586 56.7988C113.4 55.8161 113.413 54.8154 113.571 53.83C113.668 53.2301 114.082 52.8719 114.686 52.7463C114.992 52.6826 115.3 52.6686 115.611 52.6686C120.169 52.6699 124.729 52.6507 129.287 52.6772C131.885 52.6925 134.261 53.4141 136.279 55.123C138.198 56.7476 139.214 58.8466 139.552 61.3063C139.8 63.1156 139.634 64.8956 138.995 66.5966C137.503 70.5693 134.503 72.7978 130.22 72.8829C127.787 72.9314 125.351 72.8915 122.917 72.8928C122.696 72.8928 122.473 72.8855 122.253 72.9048C120.922 73.0197 120.054 73.9167 120.03 75.2563C120.003 76.7154 120.021 78.1758 120.018 79.6356C120.018 79.8568 120.025 80.0788 120.009 80.2987C119.947 81.116 119.554 81.508 118.741 81.5206C117.679 81.5365 116.616 81.5365 115.554 81.5206C114.704 81.508 114.278 81.0993 114.272 80.2542C114.257 78.3745 114.209 76.4914 114.287 74.6144C114.454 70.6092 117.435 67.7899 121.459 67.7673C123.937 67.7534 126.416 67.76 128.895 67.7673C129.475 67.7687 130.047 67.7056 130.599 67.5467C132.375 67.0378 133.373 65.7966 133.746 64.0398C133.94 63.1256 133.906 62.1973 133.657 61.2824C133.128 59.3409 131.649 58.119 129.641 57.9928C129.332 57.9735 129.022 57.9708 128.712 57.9702C126.61 57.9682 124.507 57.9695 122.405 57.9702V57.9695Z" fill="black"/>
<path d="M255.476 73.2833C255.476 75.4727 255.476 77.6627 255.476 79.852C255.476 80.0513 255.484 80.2513 255.466 80.4487C255.411 81.054 255.065 81.4785 254.468 81.4991C253.253 81.541 252.035 81.5397 250.819 81.4991C250.252 81.4805 249.857 81.0314 249.778 80.4606C249.745 80.2214 249.753 79.9749 249.753 79.7324C249.752 75.7072 249.752 71.6814 249.75 67.6562C249.75 67.2588 249.761 66.8602 249.658 66.4688C249.344 65.2715 248.458 64.5699 247.123 64.532C245.973 64.4994 244.822 64.5194 243.671 64.5187C242.986 64.5187 242.298 64.4961 241.613 64.5313C240.617 64.5818 239.749 64.9034 239.223 65.8349C238.954 66.3114 238.866 66.8296 238.865 67.3671C238.864 68.7605 238.863 70.1538 238.862 71.5471C238.862 74.2674 238.862 76.9882 238.862 79.7085C238.862 79.9517 238.871 80.1975 238.841 80.4374C238.763 81.038 238.355 81.4839 237.751 81.5038C236.58 81.543 235.406 81.539 234.233 81.5091C233.674 81.4951 233.264 81.0646 233.168 80.4952C233.135 80.3005 233.138 80.0985 233.138 79.8998C233.136 75.6089 233.124 71.3186 233.142 67.0276C233.149 65.2124 233.618 63.5293 234.784 62.0882C235.568 61.1181 236.559 60.4297 237.717 59.9905C238.653 59.6351 239.624 59.4364 240.635 59.4404C243.136 59.4503 245.637 59.4118 248.137 59.4563C249.976 59.4889 251.66 60.0337 253.096 61.2403C254.358 62.2995 255.062 63.6609 255.342 65.2622C255.441 65.8296 255.482 66.4011 255.48 66.9784C255.472 69.0794 255.476 71.181 255.477 73.282L255.476 73.2833Z" fill="url(#paint1_linear_110_871)"/>
<path d="M222.393 58.6947C223.447 58.6651 224.503 58.6595 225.555 58.6967C226.478 58.7297 226.934 59.2497 226.936 60.225C226.945 63.5463 226.938 66.8676 226.938 70.1889H226.94V79.7416C226.94 79.9706 226.949 80.2012 226.927 80.4281C226.869 81.0531 226.504 81.4826 225.882 81.5033C224.646 81.5432 223.406 81.5414 222.17 81.5043C221.556 81.4856 221.172 81.0825 221.057 80.4691C221.012 80.2236 221.007 79.9682 221.007 79.7172C221.003 73.3488 221.002 66.981 221.004 60.6127C221.004 60.3617 221.009 60.1056 221.057 59.8607C221.193 59.1682 221.684 58.7147 222.393 58.6947ZM223.996 48.7826C225.858 48.7778 227.399 50.3662 227.402 52.2914C227.405 54.1765 225.896 55.6802 223.995 55.6898C222.038 55.6993 220.521 54.1981 220.543 52.2738C220.565 50.3886 222.149 48.7875 223.996 48.7826Z" fill="#5F38EF"/>
<path d="M222.393 58.6947C223.447 58.6651 224.503 58.6595 225.555 58.6967C226.478 58.7297 226.934 59.2497 226.936 60.225C226.945 63.5463 226.938 66.8676 226.938 70.1889H226.94V79.7416C226.94 79.9706 226.949 80.2012 226.927 80.4281C226.869 81.0531 226.504 81.4826 225.882 81.5033C224.646 81.5432 223.406 81.5414 222.17 81.5043C221.556 81.4856 221.172 81.0825 221.057 80.4691C221.012 80.2236 221.007 79.9682 221.007 79.7172C221.003 73.3488 221.002 66.981 221.004 60.6127C221.004 60.3617 221.009 60.1056 221.057 59.8607C221.193 59.1682 221.684 58.7147 222.393 58.6947ZM223.996 48.7826C225.858 48.7778 227.399 50.3662 227.402 52.2914C227.405 54.1765 225.896 55.6802 223.995 55.6898C222.038 55.6993 220.521 54.1981 220.543 52.2738C220.565 50.3886 222.149 48.7875 223.996 48.7826Z" fill="url(#paint2_linear_110_871)"/>
<defs>
<linearGradient id="paint0_linear_110_871" x1="37.1316" y1="14.4551" x2="37.1316" y2="81.5328" gradientUnits="userSpaceOnUse">
<stop stop-color="#6447F3"/>
<stop offset="1" stop-color="#763DEE"/>
</linearGradient>
<linearGradient id="paint1_linear_110_871" x1="244.306" y1="59.4343" x2="244.306" y2="81.5324" gradientUnits="userSpaceOnUse">
<stop stop-color="#6447F3"/>
<stop offset="1" stop-color="#763DEE"/>
</linearGradient>
<linearGradient id="paint2_linear_110_871" x1="223.972" y1="48.7826" x2="223.972" y2="55.6903" gradientUnits="userSpaceOnUse">
<stop stop-color="#6447F3"/>
<stop offset="1" stop-color="#763DEE"/>
</linearGradient>
</defs>
</svg>
