<svg width="270" height="96" viewBox="0 0 270 96" fill="none" xmlns="http://www.w3.org/2000/svg">
<path d="M39.4964 50.5482C39.2336 50.5479 39.0205 50.3341 39.0205 50.0713C39.0205 50.0497 39.0205 50.0281 39.0205 50.0069C39.0205 49.9619 39.027 49.9168 39.0398 49.8737C40.1818 46.0538 43.541 44.0477 46.2781 41.3911C49.8563 37.9175 52.534 34.1169 51.5943 28.815C50.2726 21.3623 40.5908 17.3749 35.0914 23.1859C34.863 23.4274 34.1528 24.5004 33.947 24.5385C33.7477 24.5753 33.0466 24.3854 32.4183 24.2169C32.3781 24.2061 32.3345 24.192 32.3193 24.1533C32.1629 23.7554 33.4983 21.4933 33.7365 21.1185C40.3838 10.661 56.9996 12.9711 60.61 24.9156C61.9125 29.2242 60.7515 31.9031 60.5457 36.0321C60.29 41.165 63.5494 44.3745 65.1256 48.9496C67.764 56.6068 66.7041 67.0072 62.0755 73.7247C61.4415 74.6442 60.5386 75.4971 59.9557 76.3631C59.8414 76.5325 59.9771 76.6603 60.1805 76.6803C62.3718 76.8958 65.6972 78.8153 66.1019 81.0689C66.1481 81.3262 65.9317 81.5389 65.6703 81.5389H23.0081C22.7277 81.5389 22.5057 81.2963 22.573 81.0241C23.1126 78.8396 25.6817 77.2742 27.91 76.8003C28.3036 76.7166 28.4978 76.2135 28.2355 75.9083C25.1558 72.3243 23.2133 67.9736 22.5058 63.2589C21.4114 55.968 22.3202 49.8417 26.8406 43.9605C28.4584 41.8562 32.3601 37.9592 32.3601 35.2053V33.6567C32.3601 33.3726 32.6123 33.1464 32.8784 33.2461C34.5887 33.8874 34.7155 36.5962 34.4847 38.1626C34.0017 41.4553 31.6702 43.8297 30.05 46.5752C28.6023 49.0281 27.6364 51.5892 27.4782 54.4715C27.2759 58.1497 27.2153 63.5598 27.4841 67.2035C27.8017 71.4947 31.2096 74.7305 35.4927 74.6581C35.7395 74.654 35.9519 74.827 35.955 75.0739C35.9702 76.2772 35.7462 78.9207 36.1037 79.2823C36.3107 79.4917 36.5879 79.4013 36.8056 79.2633L42.5411 74.7704C42.6276 74.7026 42.7345 74.6669 42.8444 74.6693C47.9211 74.7832 53.5159 75.1133 55.6971 69.4874C56.5714 67.2308 56.4179 61.3413 56.2764 58.754C56.0551 54.7261 56.2764 50.5472 49.0157 50.5472C49.0157 50.5472 48.6171 50.5567 48.3888 50.5472C48.3888 50.5472 42.5916 50.5162 39.6748 50.5472C39.5996 50.548 39.5509 50.5483 39.4964 50.5482Z" fill="url(#paint0_linear_110_894)"/>
<path d="M31.7344 26.2524C35.641 25.7766 35.7088 32.2704 31.3169 31.1296C29.9715 30.7799 27.1308 29.8604 25.9341 29.2561C25.1335 28.8516 25.099 28.1961 25.9341 27.8274C26.931 27.3872 30.646 26.3856 31.7344 26.2524Z" fill="black"/>
<circle cx="34.7706" cy="62.5309" r="1.78435" fill="black"/>
<circle cx="41.7015" cy="62.5312" r="1.78435" fill="black"/>
<circle cx="48.6325" cy="62.5312" r="1.78435" fill="black"/>
<path d="M81.5674 67.4571C81.5018 63.3932 81.5903 59.3017 81.591 55.2372C81.591 53.7458 82.0221 53.2861 83.5148 53.2835C89.5947 53.2731 95.674 53.2777 101.754 53.2809C102.012 53.2809 102.274 53.3056 102.527 53.3563C103.123 53.4757 103.548 53.9185 103.571 54.5172C103.604 55.3807 103.608 56.2475 103.572 57.1111C103.543 57.8298 103.04 58.3057 102.327 58.3661C102.09 58.3863 101.851 58.3772 101.613 58.3772C97.329 58.3772 93.045 58.3772 88.761 58.3785C87.4352 58.3785 87.232 58.583 87.2359 59.9296C87.2385 60.9237 87.2099 61.9177 87.2989 62.9111C87.3605 63.5981 87.3781 63.6416 88.0676 63.6429C91.0316 63.6468 93.9962 63.6318 96.9602 63.65C98.6159 63.6604 100.236 63.9065 101.76 64.5993C104.686 65.9296 106.327 68.2093 106.695 71.3901C106.964 73.7106 106.492 75.8721 105.096 77.7745C103.598 79.8185 101.525 80.9209 99.0522 81.3345C98.4308 81.4384 97.8069 81.4702 97.1783 81.4696C92.5697 81.4663 87.9618 81.4676 83.3532 81.4676C83.2233 81.4676 83.0934 81.4696 82.9636 81.4657C82.1091 81.4384 81.6936 81.0521 81.6222 80.2074C81.604 79.9925 81.6092 79.775 81.6092 79.5594C81.6092 76.2941 81.5726 73.0289 81.5674 69.7637C81.5661 68.9852 81.5674 68.6789 81.5674 67.8619V67.4571ZM92.8619 76.3396V76.3364C94.3747 76.3364 95.8876 76.3338 97.3998 76.3376C98.0867 76.3389 98.7282 76.1747 99.3138 75.8195C100.842 74.893 101.419 73.4698 100.93 71.3005C100.581 69.7533 99.1619 68.7657 97.4309 68.7534C94.4059 68.7313 91.3803 68.741 88.3546 68.7475C87.5462 68.7495 87.3131 68.9806 87.3086 69.8C87.2969 71.7005 87.2995 73.6016 87.3086 75.502C87.3125 76.2513 87.4112 76.3364 88.1942 76.3389C89.7499 76.3435 91.3062 76.3402 92.8619 76.3402V76.3396Z" fill="black"/>
<path d="M163.937 62.474C163.239 63.2732 162.599 64.0017 161.964 64.7328C159.467 67.6046 156.972 70.4783 154.475 73.3501C152.603 75.5044 150.731 77.6588 148.856 79.8105C148.544 80.1689 148.227 80.5253 147.89 80.861C147.459 81.2908 146.936 81.5135 146.314 81.5032C145.578 81.4908 144.843 81.5084 144.107 81.4973C143.053 81.4811 142.514 80.9876 142.405 79.941C142.376 79.6624 142.38 79.3794 142.383 79.0989C142.453 73.1969 142.471 67.2949 142.462 61.3929C142.459 59.2308 142.464 57.0687 142.466 54.9066C142.466 54.6903 142.46 54.4715 142.494 54.2599C142.583 53.6904 142.966 53.2885 143.53 53.273C144.633 53.2418 145.737 53.2411 146.839 53.2723C147.411 53.2879 147.785 53.6969 147.861 54.2651C147.872 54.3508 147.872 54.4378 147.873 54.5241C147.875 54.6754 147.875 54.8267 147.875 54.978C147.867 60.6852 147.999 66.3924 147.951 72.1002C147.949 72.2905 147.91 72.4892 148.013 72.6742C148.216 72.7209 148.265 72.5372 148.354 72.434C150.73 69.6862 153.1 66.9332 155.477 64.1861C158.349 60.8663 161.229 57.553 164.099 54.232C164.671 53.5697 165.352 53.1983 166.251 53.2463C166.833 53.2775 167.42 53.2398 168.003 53.2593C168.816 53.2866 169.371 53.7677 169.552 54.5689C169.623 54.8871 169.64 55.2098 169.64 55.5351C169.638 63.5998 169.638 71.6652 169.638 79.73C169.638 80.0325 169.641 80.3364 169.56 80.6318C169.419 81.1441 169.075 81.4733 168.547 81.485C167.422 81.5103 166.297 81.5103 165.172 81.4863C164.611 81.4746 164.258 81.1363 164.126 80.5935C164.048 80.2747 164.061 79.9494 164.06 79.6254C164.056 74.1981 164.054 68.7714 164.048 63.344C164.048 63.0921 164.096 62.8304 163.936 62.474H163.937Z" fill="black"/>
<path d="M120.518 58.4532C118.787 58.4532 117.057 58.4597 115.327 58.4499C114.614 58.4461 113.901 58.4162 113.189 58.3785C112.51 58.3428 112.026 57.9727 111.9 57.3092C111.718 56.3489 111.731 55.371 111.886 54.4082C111.98 53.8219 112.385 53.4719 112.975 53.3492C113.274 53.2868 113.575 53.2732 113.879 53.2732C118.333 53.2745 122.789 53.2557 127.243 53.2816C129.782 53.2966 132.103 54.0017 134.075 55.6717C135.95 57.2592 136.944 59.3102 137.274 61.7139C137.516 63.4819 137.354 65.2213 136.729 66.8835C135.271 70.7656 132.34 72.9433 128.154 73.0264C125.777 73.0738 123.397 73.0348 121.018 73.0361C120.802 73.0361 120.584 73.029 120.369 73.0478C119.068 73.1601 118.22 74.0366 118.197 75.3456C118.171 76.7714 118.188 78.1986 118.185 79.625C118.185 79.8412 118.192 80.0581 118.176 80.273C118.116 81.0716 117.732 81.4547 116.937 81.4671C115.9 81.4826 114.861 81.4826 113.823 81.4671C112.993 81.4547 112.577 81.0554 112.57 80.2295C112.556 78.3927 112.509 76.5526 112.585 74.7184C112.748 70.8045 115.662 68.0496 119.594 68.0275C122.015 68.0139 124.438 68.0204 126.86 68.0275C127.427 68.0288 127.986 67.9671 128.525 67.812C130.261 67.3146 131.236 66.1018 131.6 64.385C131.79 63.4916 131.757 62.5846 131.513 61.6905C130.996 59.7933 129.551 58.5993 127.589 58.4759C127.287 58.4571 126.984 58.4545 126.681 58.4538C124.627 58.4519 122.572 58.4532 120.518 58.4538V58.4532Z" fill="black"/>
<path d="M247.911 73.6303C247.911 75.7109 247.911 77.7921 247.911 79.8726C247.911 80.062 247.919 80.2521 247.902 80.4396C247.85 81.0149 247.525 81.4183 246.964 81.4379C245.822 81.4777 244.677 81.4764 243.535 81.4379C243.002 81.4202 242.631 80.9934 242.557 80.451C242.525 80.2237 242.533 79.9894 242.533 79.7589C242.532 75.9338 242.532 72.108 242.53 68.2828C242.53 67.9052 242.541 67.5264 242.444 67.1544C242.148 66.0166 241.316 65.3498 240.062 65.3138C238.981 65.2829 237.899 65.3018 236.818 65.3012C236.174 65.3012 235.527 65.2797 234.884 65.3132C233.948 65.3612 233.132 65.6668 232.638 66.5521C232.385 67.0048 232.303 67.4973 232.302 68.0081C232.301 69.3322 232.299 70.6563 232.299 71.9804C232.299 74.5655 232.299 77.1512 232.299 79.7362C232.299 79.9673 232.308 80.2009 232.279 80.4289C232.206 80.9997 231.822 81.4234 231.255 81.4423C230.154 81.4796 229.051 81.4758 227.949 81.4474C227.424 81.4341 227.038 81.025 226.948 80.4838C226.917 80.2988 226.92 80.1069 226.92 79.9181C226.918 75.8403 226.907 71.7632 226.924 67.6855C226.93 65.9604 227.371 64.361 228.466 62.9915C229.204 62.0696 230.135 61.4154 231.223 60.998C232.103 60.6602 233.015 60.4714 233.965 60.4752C236.315 60.4847 238.666 60.4481 241.014 60.4904C242.743 60.5213 244.325 61.0391 245.675 62.1858C246.86 63.1923 247.522 64.486 247.785 66.0078C247.878 66.547 247.916 67.09 247.914 67.6387C247.907 69.6353 247.911 71.6325 247.912 73.6291L247.911 73.6303Z" fill="url(#paint1_linear_110_894)"/>
<path d="M217.019 59.1531C218.049 59.1242 219.081 59.1178 220.11 59.1541C221.012 59.1863 221.456 59.6952 221.458 60.6482C221.466 63.8936 221.461 67.1391 221.461 70.3845H221.462V79.7195C221.462 79.9433 221.471 80.1686 221.451 80.3904C221.393 81.0012 221.036 81.42 220.428 81.4402C219.22 81.4792 218.009 81.4784 216.801 81.4421C216.202 81.4239 215.826 81.0298 215.714 80.4304C215.67 80.1906 215.664 79.9413 215.664 79.6961C215.661 73.4729 215.66 67.2502 215.661 61.0271C215.661 60.7819 215.667 60.5319 215.714 60.2927C215.847 59.616 216.326 59.1727 217.019 59.1531ZM218.585 49.4666C220.405 49.4619 221.912 51.014 221.914 52.8953C221.917 54.7373 220.443 56.207 218.585 56.2166C216.673 56.226 215.19 54.759 215.211 52.8787C215.233 51.0365 216.781 49.4715 218.585 49.4666Z" fill="#5F38EF"/>
<path d="M217.019 59.1531C218.049 59.1242 219.081 59.1178 220.11 59.1541C221.012 59.1863 221.456 59.6952 221.458 60.6482C221.466 63.8936 221.461 67.1391 221.461 70.3845H221.462V79.7195C221.462 79.9433 221.471 80.1686 221.451 80.3904C221.393 81.0012 221.036 81.42 220.428 81.4402C219.22 81.4792 218.009 81.4784 216.801 81.4421C216.202 81.4239 215.826 81.0298 215.714 80.4304C215.67 80.1906 215.664 79.9413 215.664 79.6961C215.661 73.4729 215.66 67.2502 215.661 61.0271C215.661 60.7819 215.667 60.5319 215.714 60.2927C215.847 59.616 216.326 59.1727 217.019 59.1531ZM218.585 49.4666C220.405 49.4619 221.912 51.014 221.914 52.8953C221.917 54.7373 220.443 56.207 218.585 56.2166C216.673 56.226 215.19 54.759 215.211 52.8787C215.233 51.0365 216.781 49.4715 218.585 49.4666Z" fill="url(#paint2_linear_110_894)"/>
<path d="M188.157 58.4592C189.888 58.469 191.617 58.4625 193.348 58.4625C195.402 58.4618 197.457 58.4612 199.511 58.4631C199.814 58.4638 200.117 58.4664 200.419 58.4852C202.381 58.6086 203.826 59.8026 204.343 61.6998C204.587 62.5939 204.62 63.5009 204.43 64.3943C204.066 66.111 203.091 67.3239 201.355 67.8212C200.816 67.9764 200.257 68.0381 199.69 68.0368C197.931 68.0316 196.172 68.0268 194.412 68.0297C193.312 68.0316 192.424 68.9254 192.424 70.0256V71.0454C192.424 72.15 193.319 73.0454 194.424 73.0454H194.751C197.13 73.0441 198.607 73.083 200.984 73.0356C205.17 72.9525 208.101 70.7748 209.56 66.8928C210.184 65.2306 210.346 63.4912 210.104 61.7232C209.774 59.3195 208.78 57.2684 206.905 55.6809C204.933 54.011 202.612 53.3059 200.074 53.2909C195.619 53.265 191.163 53.2838 186.709 53.2825C186.405 53.2825 186.104 53.2961 185.806 53.3585C185.215 53.4812 184.81 53.8311 184.716 54.4174C184.561 55.3803 184.549 56.3581 184.73 57.3184C184.856 57.982 185.34 58.3521 186.019 58.3878C186.731 58.4255 187.444 58.4553 188.157 58.4592Z" fill="black"/>
<path d="M196.694 58.4592C194.964 58.469 193.234 58.4625 191.504 58.4625C189.449 58.4618 187.394 58.4612 185.34 58.4631C185.037 58.4638 184.734 58.4664 184.432 58.4852C182.47 58.6086 181.025 59.8026 180.508 61.6998C180.264 62.5939 180.231 63.5009 180.421 64.3943C180.785 66.111 181.76 67.3239 183.496 67.8212C184.036 67.9764 184.595 68.0381 185.161 68.0368C186.92 68.0316 188.68 68.0268 190.439 68.0297C191.539 68.0316 192.428 68.9254 192.428 70.0256V71.0454C192.428 72.15 191.532 73.0454 190.428 73.0454H190.1C187.721 73.0441 186.244 73.083 183.867 73.0356C179.681 72.9525 176.75 70.7748 175.292 66.8928C174.667 65.2306 174.505 63.4912 174.748 61.7232C175.077 59.3195 176.071 57.2684 177.946 55.6809C179.918 54.011 182.239 53.3059 184.778 53.2909C189.232 53.265 193.688 53.2838 198.143 53.2825C198.446 53.2825 198.747 53.2961 199.046 53.3585C199.637 53.4812 200.041 53.8311 200.135 54.4174C200.29 55.3803 200.303 56.3581 200.121 57.3184C199.995 57.982 199.511 58.3521 198.832 58.3878C198.12 58.4255 197.407 58.4553 196.694 58.4592Z" fill="black"/>
<rect x="189.548" y="57.4329" width="5.57916" height="24.1061" rx="1" fill="black"/>
<defs>
<linearGradient id="paint0_linear_110_894" x1="44.3145" y1="14.4612" x2="44.3145" y2="81.5389" gradientUnits="userSpaceOnUse">
<stop stop-color="#6447F3"/>
<stop offset="1" stop-color="#763DEE"/>
</linearGradient>
<linearGradient id="paint1_linear_110_894" x1="237.414" y1="60.4695" x2="237.414" y2="81.4695" gradientUnits="userSpaceOnUse">
<stop stop-color="#6447F3"/>
<stop offset="1" stop-color="#763DEE"/>
</linearGradient>
<linearGradient id="paint2_linear_110_894" x1="218.563" y1="49.4666" x2="218.563" y2="56.2167" gradientUnits="userSpaceOnUse">
<stop stop-color="#6447F3"/>
<stop offset="1" stop-color="#763DEE"/>
</linearGradient>
</defs>
</svg>
